<?xml version="1.0" encoding="iso-8859-1"?>
<!-- Generator: Adobe Illustrator 16.0.0, SVG Export Plug-In . SVG Version: 6.00 Build 0)  -->
<!DOCTYPE svg PUBLIC "-//W3C//DTD SVG 1.1//EN" "http://www.w3.org/Graphics/SVG/1.1/DTD/svg11.dtd">
<svg version="1.1" id="Capa_1" xmlns="http://www.w3.org/2000/svg" xmlns:xlink="http://www.w3.org/1999/xlink" x="0px" y="0px"
	 width="430px" height="430px" viewBox="0 0 430 430" style="enable-background:new 0 0 430 430;" xml:space="preserve">
<g>
	<g>
		<path d="M319.504,178.194c-8.839,0-16.027,6.894-16.027,15.364c0,8.512,7.188,15.435,16.027,15.435
			c8.769,0,15.902-6.923,15.902-15.435C335.406,185.088,328.271,178.194,319.504,178.194z"/>
		<path d="M355.04,114.096H74.961C33.561,114.096,0,143.367,0,179.475v25.902c0,36.107,33.561,65.379,74.961,65.379h83.785V125.424
			h112.508v145.333h83.786c41.399,0,74.96-29.271,74.96-65.379v-25.902C430,143.367,396.439,114.096,355.04,114.096z
			 M91.366,227.868c-12.635,0-22.875-10.24-22.875-22.874c0-12.631,22.875-38.992,22.875-38.992s22.869,26.361,22.869,38.992
			C114.235,217.627,103.996,227.868,91.366,227.868z M319.504,220.198c-15.423,0-27.504-11.699-27.504-26.64
			c0-14.861,12.081-26.505,27.504-26.505c15.388,0,27.443,11.645,27.443,26.505C346.947,208.499,334.892,220.198,319.504,220.198z
			 M362.044,214.366c0,3.075-2.493,5.567-5.566,5.567h-0.269c-3.075,0-5.567-2.492-5.567-5.567v-41.614
			c0-3.075,2.492-5.567,5.567-5.567h0.269c3.073,0,5.566,2.492,5.566,5.567V214.366z M396.435,219.928l-20.745,0.006h-0.002
			c-1.476,0-2.892-0.585-3.934-1.629c-1.047-1.045-1.633-2.46-1.633-3.938v-41.615c0-3.075,2.492-5.567,5.566-5.567h0.271
			c3.076,0,5.568,2.492,5.568,5.567v36.04h14.905c3.074,0,5.566,2.491,5.567,5.566C402.001,217.435,399.51,219.926,396.435,219.928z
			"/>
		<path d="M259.477,104.057c0.02-0.32,0.049-0.639,0.049-0.963c0-9.404-7.625-17.031-17.03-17.031h-54.989
			c-9.405,0-17.031,7.627-17.031,17.031c0,0.324,0.03,0.643,0.049,0.963H259.477z"/>
		<path d="M388.996,277.659H260.275V136.402h-90.551v141.257H41.004v17.299h6.29c-3.436,5.024-5.447,11.104-5.447,17.651
			c0,17.304,14.026,31.328,31.329,31.328c11.586,0,21.696-6.295,27.115-15.646c5.42,9.352,15.53,15.646,27.117,15.646
			c17.303,0,31.328-14.024,31.328-31.328c0-6.549-2.012-12.627-5.447-17.651h123.424c-3.436,5.024-5.447,11.104-5.447,17.651
			c0,17.304,14.025,31.328,31.328,31.328c11.586,0,21.696-6.295,27.117-15.646c5.419,9.352,15.529,15.646,27.115,15.646
			c17.303,0,31.329-14.024,31.329-31.328c0-6.549-2.011-12.627-5.447-17.651h6.29v-17.299H388.996z M73.176,328.682
			c-8.862,0-16.073-7.211-16.073-16.072s7.21-16.072,16.073-16.072c8.861,0,16.071,7.211,16.071,16.072
			S82.037,328.682,73.176,328.682z M127.407,328.682c-8.862,0-16.073-7.211-16.073-16.072s7.21-16.072,16.073-16.072
			c8.862,0,16.071,7.211,16.071,16.072S136.269,328.682,127.407,328.682z M187.488,156.994h55.024v30.889h-55.024V156.994
			L187.488,156.994z M187.488,208.473h55.024v30.889h-55.024V208.473L187.488,208.473z M187.488,277.659v-17.705h55.024v17.705
			H187.488z M302.593,328.682c-8.861,0-16.071-7.211-16.071-16.072s7.21-16.072,16.071-16.072c8.862,0,16.072,7.211,16.072,16.072
			S311.455,328.682,302.593,328.682z M356.824,328.682c-8.861,0-16.071-7.211-16.071-16.072s7.209-16.072,16.071-16.072
			c8.861,0,16.072,7.211,16.072,16.072S365.688,328.682,356.824,328.682z"/>
	</g>
</g>
<g>
</g>
<g>
</g>
<g>
</g>
<g>
</g>
<g>
</g>
<g>
</g>
<g>
</g>
<g>
</g>
<g>
</g>
<g>
</g>
<g>
</g>
<g>
</g>
<g>
</g>
<g>
</g>
<g>
</g>
</svg>
