<?xml version="1.0" encoding="iso-8859-1"?>
<!-- Generator: Adobe Illustrator 16.0.0, SVG Export Plug-In . SVG Version: 6.00 Build 0)  -->
<!DOCTYPE svg PUBLIC "-//W3C//DTD SVG 1.1//EN" "http://www.w3.org/Graphics/SVG/1.1/DTD/svg11.dtd">
<svg version="1.1" id="Capa_1" xmlns="http://www.w3.org/2000/svg" xmlns:xlink="http://www.w3.org/1999/xlink" x="0px" y="0px"
	 width="79.618px" height="79.618px" viewBox="0 0 79.618 79.618" style="enable-background:new 0 0 79.618 79.618;"
	 xml:space="preserve">
<g>
	<path d="M22.225,8.529c-0.166,0-0.317,0.025-0.478,0.035C24.912,3.433,30.568,0,37.041,0c6.473,0,12.128,3.434,15.294,8.564
		c-0.159-0.01-0.312-0.035-0.478-0.035h-9.485c-1.127,0-2.127,0.246-2.944,0.721c-1.72-0.236-3.322-0.217-4.688,0.047
		c-0.831-0.502-1.871-0.768-3.029-0.768H22.225z M36.764,13.404v3.555c0,1.184-0.701,5.053-9.716,5.053
		c-3.766,0-6.27-0.699-7.817-1.713c1.141,8.83,8.671,15.656,17.811,15.656c9.116,0,16.629-6.791,17.801-15.586
		c-1.404,0.918-3.744,1.643-7.646,1.643c-7.282,0-9.877-2.609-9.877-5.053v-3.557C37.125,13.394,36.938,13.396,36.764,13.404z
		 M46.581,76.902c0,0.695,0.146,1.355,0.404,1.957H6.396v-18.66c0-12.691,10.326-23.018,23.018-23.018h15.253
		c6.371,0,12.144,2.604,16.314,6.801h-1.633c-0.566,0-1.098,0.146-1.573,0.385c-3.562-2.955-8.131-4.734-13.108-4.734h-3.381v6.943
		h-0.265l-3.788,29.832h9.393C46.603,76.572,46.581,76.736,46.581,76.902z M36.781,76.408l-3.788-29.832h-0.198v-6.943h-3.381
		c-11.341,0-20.566,9.226-20.566,20.566v16.209H36.781z M18.396,16.652v-4.02c0-1.963,1.467-3.186,3.828-3.186h9.485
		c1.127,0,2.095,0.301,2.771,0.854c1.441-0.359,3.271-0.391,5.229-0.076c0.675-0.51,1.587-0.777,2.664-0.777h9.484
		c2.361,0,3.828,1.223,3.828,3.186v4.02c0,2.361-3.253,3.828-8.49,3.828c-5.255,0-8.651-1.502-8.651-3.828v-4.02
		c0-0.234,0.022-0.461,0.065-0.678c-1.231-0.137-2.398-0.086-3.133,0.033c0.04,0.207,0.061,0.422,0.061,0.645v4.02
		c0,2.361-3.253,3.828-8.49,3.828C21.792,20.48,18.396,18.978,18.396,16.652z M39.77,16.652c0,1.293,2.551,2.602,7.426,2.602
		c4.991,0,7.265-1.35,7.265-2.602v-4.02c0-1.768-1.819-1.959-2.603-1.959h-9.485c-0.881,0-1.617,0.229-2.069,0.65l-0.219,0.203
		l-0.107,0.205c-0.139,0.264-0.206,0.557-0.206,0.9L39.77,16.652L39.77,16.652z M19.622,16.652c0,1.293,2.551,2.602,7.426,2.602
		c4.991,0,7.265-1.35,7.265-2.602v-4.02c0-0.313-0.061-0.596-0.179-0.844l-0.097-0.205l-0.172-0.184
		c-0.438-0.469-1.203-0.727-2.155-0.727h-9.485c-0.782,0-2.603,0.191-2.603,1.959V16.652z M14.085,54.344h15.322v17.567H14.085
		V54.344z M16.537,69.46h10.42V56.794h-10.42V69.46z M63.12,67.035c0-0.457,0.371-0.828,0.828-0.828
		c0.455,0,0.826,0.371,0.826,0.828s-0.371,0.828-0.826,0.828C63.491,67.863,63.12,67.492,63.12,67.035z M63.671,67.035
		c0,0.152,0.125,0.275,0.277,0.275c0.151,0,0.274-0.123,0.274-0.275S64.1,66.76,63.948,66.76
		C63.796,66.76,63.671,66.883,63.671,67.035z M59.673,67.035c0.455,0,0.826,0.371,0.826,0.828c0,0.453-0.371,0.826-0.826,0.826
		c-0.457,0-0.827-0.373-0.827-0.826C58.846,67.406,59.216,67.035,59.673,67.035z M59.673,67.585c-0.151,0-0.276,0.123-0.276,0.277
		c0,0.149,0.125,0.274,0.276,0.274c0.15,0,0.275-0.125,0.275-0.274C59.948,67.708,59.823,67.585,59.673,67.585z M60.82,64.277
		c0-0.635,0.517-1.15,1.149-1.15s1.148,0.516,1.148,1.15c0,0.633-0.516,1.148-1.148,1.148S60.82,64.91,60.82,64.277z M61.372,64.277
		c0,0.328,0.27,0.598,0.599,0.598s0.599-0.27,0.599-0.598c0-0.33-0.27-0.6-0.599-0.6S61.372,63.947,61.372,64.277z M73.146,76.701
		l-6.973-17.664V48.844h0.847c0.608,0,1.103-0.494,1.103-1.104s-0.492-1.104-1.103-1.104H65.07c-0.608,0-1.103,0.494-1.103,1.104
		v11.396c0,0.045,0.001,0.088,0.007,0.133l0.009,0.064c0.006,0.123,0.03,0.244,0.077,0.359l4.194,10.627H53.614l4.061-10.639
		c0.049-0.127,0.08-0.308,0.08-0.441c0.013-0.062,0.017-0.125,0.017-0.188V47.74c0-0.609-0.493-1.104-1.104-1.104h-1.898
		c-0.607,0-1.104,0.494-1.104,1.104s0.494,1.104,1.104,1.104h0.797v10.123c-0.004,0.027-0.008,0.055-0.011,0.082l-6.74,17.664
		c-0.048,0.127-0.071,0.258-0.071,0.395c0,1.384,1.125,2.511,2.51,2.511h19.459c1.386,0,2.511-1.127,2.511-2.511
		C73.223,76.969,73.195,76.831,73.146,76.701z"/>
</g>
<g>
</g>
<g>
</g>
<g>
</g>
<g>
</g>
<g>
</g>
<g>
</g>
<g>
</g>
<g>
</g>
<g>
</g>
<g>
</g>
<g>
</g>
<g>
</g>
<g>
</g>
<g>
</g>
<g>
</g>
</svg>
