<?xml version="1.0" encoding="iso-8859-1"?>
<!-- Generator: Adobe Illustrator 18.1.1, SVG Export Plug-In . SVG Version: 6.00 Build 0)  -->
<svg version="1.1" id="Capa_1" xmlns="http://www.w3.org/2000/svg" xmlns:xlink="http://www.w3.org/1999/xlink" x="0px" y="0px"
	 viewBox="0 0 317.266 317.266" style="enable-background:new 0 0 317.266 317.266;" xml:space="preserve">
<g>
	<g>
		<g>
			<g>
				<polygon style="fill:#010002;" points="111.043,254.97 79.315,286.697 237.948,286.697 206.223,254.97 				"/>
			</g>
			<g>
				<path style="fill:#010002;" d="M105.682,127.524c-1.95,0-2.886,1.539-2.886,4.616v13.99c0,3.077,0.936,4.616,2.886,4.616
					c1.934,0,2.87-1.539,2.87-4.616v-13.99C108.552,129.063,107.616,127.524,105.682,127.524z"/>
			</g>
			<g>
				<path style="fill:#010002;" d="M208.429,121.703c-2.206,0-4.25,1.205-6.171,3.57v-14.437h-5.964v44.179h5.964v-3.188
					c1.982,2.459,4.03,3.648,6.171,3.648c2.348,0,3.965-1.254,4.775-3.696c0.382-1.396,0.586-3.586,0.586-6.631v-13.103
					c0-3.11-0.207-5.283-0.586-6.615C212.394,122.956,210.774,121.703,208.429,121.703z M207.84,145.608
					c0,2.983-0.904,4.441-2.601,4.441c-0.985,0-1.982-0.476-2.983-1.461v-20.051c0.985-0.985,1.982-1.461,2.983-1.461
					c1.697,0,2.601,1.522,2.601,4.489V145.608z"/>
			</g>
			<g>
				<polygon style="fill:#010002;" points="152.32,117.071 159.33,117.071 159.33,155.015 165.96,155.015 165.96,117.071 
					173.115,117.071 173.115,110.852 152.32,110.852 				"/>
			</g>
			<g>
				<path style="fill:#010002;" d="M185.155,147.257c-1.315,1.872-2.569,2.792-3.744,2.792c-0.81,0-1.27-0.476-1.428-1.38
					c-0.048-0.207-0.048-0.936-0.048-2.316v-24.223h-5.947v26.03c0,2.316,0.207,3.887,0.508,4.885
					c0.586,1.665,1.921,2.459,3.855,2.459c2.19,0,4.441-1.315,6.805-4.046v3.586h5.964v-32.914h-5.964L185.155,147.257
					L185.155,147.257z"/>
			</g>
			<g>
				<path style="fill:#010002;" d="M227.401,121.703c-3.013,0-5.426,1.111-7.107,3.362c-1.302,1.665-1.856,4.25-1.856,7.758v11.532
					c0,3.489,0.651,6.093,1.921,7.742c1.697,2.251,4.091,3.379,7.217,3.379c3.093,0,5.552-1.189,7.201-3.57
					c0.729-1.046,1.173-2.251,1.38-3.586c0.065-0.603,0.159-1.921,0.159-3.839v-0.872h-6.106c0,2.394-0.078,3.712-0.143,4.046
					c-0.334,1.587-1.189,2.381-2.666,2.381c-2.047,0-3.013-1.522-3.013-4.568v-5.824h11.93v-6.822c0-3.521-0.619-6.093-1.856-7.758
					C232.762,122.83,230.381,121.703,227.401,121.703z M230.335,134.695h-5.947v-3.045c0-3.045,0.984-4.567,2.983-4.567
					c1.982,0,2.983,1.522,2.983,4.567v3.045C230.354,134.695,230.335,134.695,230.335,134.695z"/>
			</g>
			<g>
				<path style="fill:#010002;" d="M0,30.568v206.223h317.266V30.568H0z M88.692,137.692v18.068h-6.695v-18.068
					c-0.603-3.204-1.934-7.9-4.091-14.119c-1.396-4.14-2.902-8.296-4.298-12.436h7.029l4.742,17.53l4.554-17.53h6.757
					L88.692,137.692z M114.58,144.99c0,3.537-0.586,6.155-1.856,7.836c-1.649,2.268-3.997,3.395-7.013,3.395
					c-2.983,0-5.361-1.143-7.013-3.395c-1.27-1.665-1.888-4.298-1.888-7.836v-11.645c0-3.553,0.619-6.138,1.888-7.836
					c1.649-2.268,4.03-3.411,7.013-3.411c3.013,0,5.361,1.143,7.013,3.411c1.27,1.681,1.856,4.282,1.856,7.836V144.99z
					 M136.869,155.76h-6.028v-3.631c-2.381,2.744-4.697,4.091-6.916,4.091c-1.921,0-3.284-0.794-3.871-2.475
					c-0.334-1.014-0.525-2.601-0.525-4.949v-26.302h6.012v24.478c0,1.412,0,2.141,0.078,2.348c0.126,0.936,0.603,1.412,1.412,1.412
					c1.205,0,2.459-0.936,3.806-2.824V122.48h6.028L136.869,155.76L136.869,155.76z M241.899,156.997
					c-1.189,5.251-5.504,9.122-10.66,9.692c-12.231,1.364-24.621,1.396-36.946,1.364c-12.325,0.032-24.731,0-36.946-1.364
					c-5.173-0.57-9.471-4.441-10.66-9.692c-1.713-7.473-1.713-15.626-1.713-23.335c0-7.709,0.032-15.846,1.73-23.319
					c1.189-5.251,5.52-9.122,10.66-9.692c12.231-1.364,24.634-1.38,36.946-1.364c12.309,0,24.747,0,36.946,1.364
					c5.173,0.57,9.471,4.441,10.676,9.692c1.713,7.473,1.681,15.626,1.681,23.319C243.613,141.358,243.613,149.527,241.899,156.997z
					"/>
			</g>
		</g>
	</g>
</g>
<g>
</g>
<g>
</g>
<g>
</g>
<g>
</g>
<g>
</g>
<g>
</g>
<g>
</g>
<g>
</g>
<g>
</g>
<g>
</g>
<g>
</g>
<g>
</g>
<g>
</g>
<g>
</g>
<g>
</g>
</svg>
